<mxfile host="app.diagrams.net" agent="Mozilla/5.0 (Windows NT 10.0; Win64; x64) AppleWebKit/537.36 (KHTML, like Gecko) Chrome/132.0.0.0 Safari/537.36" version="26.0.11">
  <diagram name="Page-1" id="KJhZajNi7WbxZbDh0oPd">
    <mxGraphModel dx="1249" dy="609" grid="1" gridSize="10" guides="1" tooltips="1" connect="1" arrows="1" fold="1" page="1" pageScale="1" pageWidth="850" pageHeight="1100" math="0" shadow="0">
      <root>
        <mxCell id="0" />
        <mxCell id="1" parent="0" />
        <mxCell id="VBqj4guPtV25HCu1a85X-1" value="" style="sketch=0;points=[[0,0,0],[0.25,0,0],[0.5,0,0],[0.75,0,0],[1,0,0],[0,1,0],[0.25,1,0],[0.5,1,0],[0.75,1,0],[1,1,0],[0,0.25,0],[0,0.5,0],[0,0.75,0],[1,0.25,0],[1,0.5,0],[1,0.75,0]];outlineConnect=0;fontColor=#232F3E;fillColor=#8C4FFF;strokeColor=#ffffff;dashed=0;verticalLabelPosition=bottom;verticalAlign=top;align=center;html=1;fontSize=12;fontStyle=0;aspect=fixed;shape=mxgraph.aws4.resourceIcon;resIcon=mxgraph.aws4.elastic_load_balancing;" vertex="1" parent="1">
          <mxGeometry x="170" y="250" width="78" height="78" as="geometry" />
        </mxCell>
        <mxCell id="VBqj4guPtV25HCu1a85X-2" value="Elastic loadbalancer" style="text;html=1;align=center;verticalAlign=middle;resizable=0;points=[];autosize=1;strokeColor=none;fillColor=none;" vertex="1" parent="1">
          <mxGeometry x="140" y="340" width="130" height="30" as="geometry" />
        </mxCell>
        <mxCell id="VBqj4guPtV25HCu1a85X-3" value="" style="swimlane;startSize=0;" vertex="1" parent="1">
          <mxGeometry x="360" y="30" width="400" height="200" as="geometry" />
        </mxCell>
        <mxCell id="VBqj4guPtV25HCu1a85X-4" value="Primary Region" style="text;html=1;align=center;verticalAlign=middle;resizable=0;points=[];autosize=1;strokeColor=none;fillColor=none;" vertex="1" parent="VBqj4guPtV25HCu1a85X-3">
          <mxGeometry x="10" width="110" height="30" as="geometry" />
        </mxCell>
        <mxCell id="VBqj4guPtV25HCu1a85X-5" value="" style="sketch=0;points=[[0,0,0],[0.25,0,0],[0.5,0,0],[0.75,0,0],[1,0,0],[0,1,0],[0.25,1,0],[0.5,1,0],[0.75,1,0],[1,1,0],[0,0.25,0],[0,0.5,0],[0,0.75,0],[1,0.25,0],[1,0.5,0],[1,0.75,0]];outlineConnect=0;fontColor=#232F3E;fillColor=#ED7100;strokeColor=#ffffff;dashed=0;verticalLabelPosition=bottom;verticalAlign=top;align=center;html=1;fontSize=12;fontStyle=0;aspect=fixed;shape=mxgraph.aws4.resourceIcon;resIcon=mxgraph.aws4.ec2;" vertex="1" parent="VBqj4guPtV25HCu1a85X-3">
          <mxGeometry x="42" y="40" width="78" height="78" as="geometry" />
        </mxCell>
        <mxCell id="VBqj4guPtV25HCu1a85X-9" value="" style="sketch=0;points=[[0,0,0],[0.25,0,0],[0.5,0,0],[0.75,0,0],[1,0,0],[0,1,0],[0.25,1,0],[0.5,1,0],[0.75,1,0],[1,1,0],[0,0.25,0],[0,0.5,0],[0,0.75,0],[1,0.25,0],[1,0.5,0],[1,0.75,0]];outlineConnect=0;fontColor=#232F3E;fillColor=#C925D1;strokeColor=#ffffff;dashed=0;verticalLabelPosition=bottom;verticalAlign=top;align=center;html=1;fontSize=12;fontStyle=0;aspect=fixed;shape=mxgraph.aws4.resourceIcon;resIcon=mxgraph.aws4.database;" vertex="1" parent="VBqj4guPtV25HCu1a85X-3">
          <mxGeometry x="230" y="40" width="78" height="78" as="geometry" />
        </mxCell>
        <mxCell id="VBqj4guPtV25HCu1a85X-13" value="&lt;span style=&quot;color: rgb(32, 33, 34); font-size: 19px; letter-spacing: 0.2px; text-align: left; text-wrap-mode: wrap; background-color: rgb(255, 255, 255);&quot;&gt;&lt;font face=&quot;Times New Roman&quot;&gt;WebServerVM&lt;/font&gt;&lt;/span&gt;" style="text;html=1;align=center;verticalAlign=middle;resizable=0;points=[];autosize=1;strokeColor=none;fillColor=none;" vertex="1" parent="VBqj4guPtV25HCu1a85X-3">
          <mxGeometry x="11" y="125" width="140" height="40" as="geometry" />
        </mxCell>
        <mxCell id="VBqj4guPtV25HCu1a85X-14" value="SQL VM" style="text;html=1;align=center;verticalAlign=middle;resizable=0;points=[];autosize=1;strokeColor=none;fillColor=none;" vertex="1" parent="1">
          <mxGeometry x="595" y="158" width="70" height="30" as="geometry" />
        </mxCell>
        <mxCell id="VBqj4guPtV25HCu1a85X-17" value="" style="swimlane;startSize=0;" vertex="1" parent="1">
          <mxGeometry x="360" y="298" width="400" height="200" as="geometry" />
        </mxCell>
        <mxCell id="VBqj4guPtV25HCu1a85X-19" value="" style="sketch=0;points=[[0,0,0],[0.25,0,0],[0.5,0,0],[0.75,0,0],[1,0,0],[0,1,0],[0.25,1,0],[0.5,1,0],[0.75,1,0],[1,1,0],[0,0.25,0],[0,0.5,0],[0,0.75,0],[1,0.25,0],[1,0.5,0],[1,0.75,0]];outlineConnect=0;fontColor=#232F3E;fillColor=#ED7100;strokeColor=#ffffff;dashed=0;verticalLabelPosition=bottom;verticalAlign=top;align=center;html=1;fontSize=12;fontStyle=0;aspect=fixed;shape=mxgraph.aws4.resourceIcon;resIcon=mxgraph.aws4.ec2;" vertex="1" parent="VBqj4guPtV25HCu1a85X-17">
          <mxGeometry x="42" y="40" width="78" height="78" as="geometry" />
        </mxCell>
        <mxCell id="VBqj4guPtV25HCu1a85X-20" value="" style="sketch=0;points=[[0,0,0],[0.25,0,0],[0.5,0,0],[0.75,0,0],[1,0,0],[0,1,0],[0.25,1,0],[0.5,1,0],[0.75,1,0],[1,1,0],[0,0.25,0],[0,0.5,0],[0,0.75,0],[1,0.25,0],[1,0.5,0],[1,0.75,0]];outlineConnect=0;fontColor=#232F3E;fillColor=#C925D1;strokeColor=#ffffff;dashed=0;verticalLabelPosition=bottom;verticalAlign=top;align=center;html=1;fontSize=12;fontStyle=0;aspect=fixed;shape=mxgraph.aws4.resourceIcon;resIcon=mxgraph.aws4.database;" vertex="1" parent="VBqj4guPtV25HCu1a85X-17">
          <mxGeometry x="230" y="40" width="78" height="78" as="geometry" />
        </mxCell>
        <mxCell id="VBqj4guPtV25HCu1a85X-21" value="&lt;span style=&quot;color: rgb(32, 33, 34); font-size: 19px; letter-spacing: 0.2px; text-align: left; text-wrap-mode: wrap; background-color: rgb(255, 255, 255);&quot;&gt;&lt;font face=&quot;Times New Roman&quot;&gt;WebServerVM&lt;/font&gt;&lt;/span&gt;" style="text;html=1;align=center;verticalAlign=middle;resizable=0;points=[];autosize=1;strokeColor=none;fillColor=none;" vertex="1" parent="VBqj4guPtV25HCu1a85X-17">
          <mxGeometry x="11" y="125" width="140" height="40" as="geometry" />
        </mxCell>
        <mxCell id="VBqj4guPtV25HCu1a85X-25" value="Secondary Region" style="text;html=1;align=center;verticalAlign=middle;resizable=0;points=[];autosize=1;strokeColor=none;fillColor=none;" vertex="1" parent="VBqj4guPtV25HCu1a85X-17">
          <mxGeometry x="11" width="120" height="30" as="geometry" />
        </mxCell>
        <mxCell id="VBqj4guPtV25HCu1a85X-22" value="SQL VM" style="text;html=1;align=center;verticalAlign=middle;resizable=0;points=[];autosize=1;strokeColor=none;fillColor=none;" vertex="1" parent="1">
          <mxGeometry x="595" y="428" width="70" height="30" as="geometry" />
        </mxCell>
        <mxCell id="VBqj4guPtV25HCu1a85X-23" style="edgeStyle=orthogonalEdgeStyle;rounded=0;orthogonalLoop=1;jettySize=auto;html=1;exitX=1;exitY=0.5;exitDx=0;exitDy=0;exitPerimeter=0;entryX=-0.001;entryY=0.461;entryDx=0;entryDy=0;entryPerimeter=0;" edge="1" parent="1" source="VBqj4guPtV25HCu1a85X-1" target="VBqj4guPtV25HCu1a85X-3">
          <mxGeometry relative="1" as="geometry" />
        </mxCell>
        <mxCell id="VBqj4guPtV25HCu1a85X-24" style="edgeStyle=orthogonalEdgeStyle;rounded=0;orthogonalLoop=1;jettySize=auto;html=1;entryX=-0.006;entryY=0.717;entryDx=0;entryDy=0;entryPerimeter=0;" edge="1" parent="1" source="VBqj4guPtV25HCu1a85X-1" target="VBqj4guPtV25HCu1a85X-17">
          <mxGeometry relative="1" as="geometry" />
        </mxCell>
        <mxCell id="VBqj4guPtV25HCu1a85X-27" value="Internet" style="ellipse;shape=cloud;whiteSpace=wrap;html=1;" vertex="1" parent="1">
          <mxGeometry y="260" width="110" height="80" as="geometry" />
        </mxCell>
        <mxCell id="VBqj4guPtV25HCu1a85X-28" style="edgeStyle=orthogonalEdgeStyle;rounded=0;orthogonalLoop=1;jettySize=auto;html=1;entryX=0;entryY=0.75;entryDx=0;entryDy=0;entryPerimeter=0;" edge="1" parent="1" source="VBqj4guPtV25HCu1a85X-27" target="VBqj4guPtV25HCu1a85X-1">
          <mxGeometry relative="1" as="geometry" />
        </mxCell>
        <mxCell id="VBqj4guPtV25HCu1a85X-29" style="edgeStyle=orthogonalEdgeStyle;rounded=0;orthogonalLoop=1;jettySize=auto;html=1;exitX=1;exitY=0.25;exitDx=0;exitDy=0;entryX=1;entryY=0.541;entryDx=0;entryDy=0;entryPerimeter=0;" edge="1" parent="1" source="VBqj4guPtV25HCu1a85X-3" target="VBqj4guPtV25HCu1a85X-17">
          <mxGeometry relative="1" as="geometry" />
        </mxCell>
        <mxCell id="VBqj4guPtV25HCu1a85X-30" value="Text" style="edgeLabel;html=1;align=center;verticalAlign=middle;resizable=0;points=[];" vertex="1" connectable="0" parent="VBqj4guPtV25HCu1a85X-29">
          <mxGeometry x="-0.3031" y="1" relative="1" as="geometry">
            <mxPoint as="offset" />
          </mxGeometry>
        </mxCell>
      </root>
    </mxGraphModel>
  </diagram>
</mxfile>
